<svg width="186" height="180" viewBox="0 0 186 180" fill="none" xmlns="http://www.w3.org/2000/svg">
<circle cx="95.5" cy="90.5" r="70.5" fill="url(#paint0_linear_334_803)"/>
<circle cx="178.467" cy="27.5" r="7.5" fill="url(#paint1_linear_334_803)"/>
<circle cx="20.0332" cy="10" r="10" fill="url(#paint2_linear_334_803)"/>
<circle cx="10.0332" cy="133" r="5" fill="url(#paint3_linear_334_803)"/>
<circle cx="165.533" cy="160.5" r="2.5" fill="url(#paint4_linear_334_803)"/>
<path fill-rule="evenodd" clip-rule="evenodd" d="M84.8548 65.9146H106.169C114.502 65.9146 120.083 71.7654 120.083 80.4679V100.555C120.083 109.233 114.502 115.081 106.169 115.081H84.8548C76.521 115.081 70.916 109.233 70.916 100.555V80.4679C70.916 71.7654 76.521 65.9146 84.8548 65.9146ZM102.899 97.8729C103.735 97.0395 103.735 95.6874 102.899 94.8516L98.5231 90.4758L102.899 86.0975C103.735 85.2641 103.735 83.8874 102.899 83.0516C102.063 82.2133 100.711 82.2133 99.8506 83.0516L95.4993 87.425L91.1235 83.0516C90.2631 82.2133 88.911 82.2133 88.0752 83.0516C87.2393 83.8874 87.2393 85.2641 88.0752 86.0975L92.451 90.4758L88.0752 94.827C87.2393 95.6874 87.2393 97.0395 88.0752 97.8729C88.4931 98.2908 89.0585 98.5145 89.5993 98.5145C90.1648 98.5145 90.7056 98.2908 91.1235 97.8729L95.4993 93.5241L99.8752 97.8729C100.293 98.3178 100.834 98.5145 101.375 98.5145C101.94 98.5145 102.481 98.2908 102.899 97.8729Z" fill="white"/>
<circle cx="106.533" cy="4.5" r="2.5" fill="url(#paint5_linear_334_803)"/>
<circle cx="62.5332" cy="176.5" r="3.5" fill="url(#paint6_linear_334_803)"/>
<circle cx="122.033" cy="171" r="1" fill="url(#paint7_linear_334_803)"/>
<circle cx="170.533" cy="110.5" r="2.5" fill="url(#paint8_linear_334_803)"/>
<circle cx="1.0332" cy="75" r="1" fill="url(#paint9_linear_334_803)"/>
<defs>
<linearGradient id="paint0_linear_334_803" x1="166" y1="161" x2="-1.77734" y2="112.355" gradientUnits="userSpaceOnUse">
<stop stop-color="#FF4D67"/>
<stop offset="1" stop-color="#FF8A9B"/>
</linearGradient>
<linearGradient id="paint1_linear_334_803" x1="185.967" y1="35" x2="168.118" y2="29.8249" gradientUnits="userSpaceOnUse">
<stop stop-color="#FF4D67"/>
<stop offset="1" stop-color="#FF8A9B"/>
</linearGradient>
<linearGradient id="paint2_linear_334_803" x1="30.0332" y1="20" x2="6.235" y2="13.0999" gradientUnits="userSpaceOnUse">
<stop stop-color="#FF4D67"/>
<stop offset="1" stop-color="#FF8A9B"/>
</linearGradient>
<linearGradient id="paint3_linear_334_803" x1="15.0332" y1="138" x2="3.1341" y2="134.55" gradientUnits="userSpaceOnUse">
<stop stop-color="#FF4D67"/>
<stop offset="1" stop-color="#FF8A9B"/>
</linearGradient>
<linearGradient id="paint4_linear_334_803" x1="168.033" y1="163" x2="162.084" y2="161.275" gradientUnits="userSpaceOnUse">
<stop stop-color="#FF4D67"/>
<stop offset="1" stop-color="#FF8A9B"/>
</linearGradient>
<linearGradient id="paint5_linear_334_803" x1="109.033" y1="7" x2="103.084" y2="5.27498" gradientUnits="userSpaceOnUse">
<stop stop-color="#FF4D67"/>
<stop offset="1" stop-color="#FF8A9B"/>
</linearGradient>
<linearGradient id="paint6_linear_334_803" x1="66.0332" y1="180" x2="57.7038" y2="177.585" gradientUnits="userSpaceOnUse">
<stop stop-color="#FF4D67"/>
<stop offset="1" stop-color="#FF8A9B"/>
</linearGradient>
<linearGradient id="paint7_linear_334_803" x1="123.033" y1="172" x2="120.653" y2="171.31" gradientUnits="userSpaceOnUse">
<stop stop-color="#FF4D67"/>
<stop offset="1" stop-color="#FF8A9B"/>
</linearGradient>
<linearGradient id="paint8_linear_334_803" x1="173.033" y1="113" x2="167.084" y2="111.275" gradientUnits="userSpaceOnUse">
<stop stop-color="#FF4D67"/>
<stop offset="1" stop-color="#FF8A9B"/>
</linearGradient>
<linearGradient id="paint9_linear_334_803" x1="2.0332" y1="76" x2="-0.346617" y2="75.31" gradientUnits="userSpaceOnUse">
<stop stop-color="#FF4D67"/>
<stop offset="1" stop-color="#FF8A9B"/>
</linearGradient>
</defs>
</svg>
