<svg width="242" height="60" viewBox="0 0 242 60" fill="none" xmlns="http://www.w3.org/2000/svg">
<rect width="60" height="60" rx="30" fill="url(#paint0_linear_1228_19914)"/>
<path d="M27.5969 49C27.5969 49 30.3926 43.287 28.5217 39.6744C27.6069 37.9079 25.9605 36.8657 24.3929 35.8732C22.7546 34.836 21.2022 33.8533 20.6605 32.1552C20.6605 32.1552 18.8106 32.9113 19.6936 35.0537C20.5766 37.196 22.3 38.2462 22.3 38.2462C14.7536 35.0595 12.8163 31.9404 13.724 23.8378C11.5818 28.7951 11.4538 32.2392 13.2407 35.8518C15.0277 39.4644 17.2341 41.0187 22.0057 43.9592C26.7774 46.8996 27.5969 49 27.5969 49Z" fill="white"/>
<path d="M32.4031 49C32.4031 49 29.6074 43.287 31.4782 39.6744C32.3931 37.9079 34.0395 36.8657 35.6071 35.8732C37.2454 34.836 38.7978 33.8533 39.3395 32.1552C39.3395 32.1552 41.1894 32.9113 40.3064 35.0537C39.4234 37.196 37.7 38.2462 37.7 38.2462C45.2464 35.0595 47.1837 31.9404 46.276 23.8378C48.4182 28.7951 48.5463 32.2392 46.7593 35.8518C44.9723 39.4644 42.7659 41.0187 37.9943 43.9592C33.2226 46.8996 32.4031 49 32.4031 49Z" fill="white"/>
<path fill-rule="evenodd" clip-rule="evenodd" d="M34.3625 13.0002C35.0787 13.0002 35.7938 13.1011 36.4736 13.3291C40.6631 14.6901 42.1727 19.2835 40.9116 23.2985C40.1966 25.3502 39.0275 27.2228 37.4963 28.7528C35.3046 30.8737 32.8994 32.7564 30.3104 34.3783L30.0266 34.5495L29.7315 34.3669C27.1334 32.7564 24.7146 30.8737 22.5024 28.7414C20.9815 27.2114 19.8113 25.3502 19.0848 23.2985C17.8022 19.2835 19.3118 14.6901 23.5467 13.3053C23.8758 13.1919 24.2152 13.1125 24.5557 13.0682L24.8849 13C25.2095 13 25.3076 13.0001 25.3916 13.0001C25.4544 13.0001 25.5093 13.0002 25.6454 13.0002H25.7702C26.4853 13.0217 27.1777 13.1465 27.8485 13.3745H27.9154C27.9608 13.396 27.9949 13.4198 28.0176 13.4414C28.2684 13.5219 28.5057 13.6126 28.7327 13.7374L29.164 13.9302C29.2682 13.9857 29.3852 14.0706 29.4863 14.144C29.5504 14.1904 29.608 14.2323 29.6521 14.2591C29.6706 14.27 29.6894 14.281 29.7084 14.2921C29.8057 14.3489 29.9071 14.408 29.9926 14.4735C31.2536 13.5106 32.7848 12.9888 34.3625 13.0002ZM30.6346 18.9366C30.4643 18.7665 30.2334 18.6709 29.9925 18.6709C29.7517 18.6709 29.5208 18.7665 29.3505 18.9366C29.1802 19.1068 29.0845 19.3376 29.0845 19.5782V22.3003H26.3604C26.1196 22.3003 25.8886 22.3958 25.7183 22.566C25.5481 22.7362 25.4524 22.967 25.4524 23.2076C25.4524 23.4482 25.5481 23.679 25.7183 23.8492C25.8886 24.0193 26.1196 24.1149 26.3604 24.1149H29.0845V26.837C29.0845 27.0776 29.1802 27.3084 29.3505 27.4785C29.5208 27.6487 29.7517 27.7443 29.9925 27.7443C30.2334 27.7443 30.4643 27.6487 30.6346 27.4785C30.8049 27.3084 30.9006 27.0776 30.9006 26.837V24.1149H33.6247C33.8655 24.1149 34.0965 24.0193 34.2668 23.8492C34.437 23.679 34.5327 23.4482 34.5327 23.2076C34.5327 22.967 34.437 22.7362 34.2668 22.566C34.0965 22.3958 33.8655 22.3003 33.6247 22.3003H30.9006V19.5782C30.9006 19.3376 30.8049 19.1068 30.6346 18.9366Z" fill="white"/>
<path d="M78.88 47L85.408 13.4H90.256L98.44 34.928L106.624 13.4H111.472L118 47H112.024L107.992 26.216L100.432 46.232H96.424L88.864 26.216L84.856 47H78.88ZM131.768 47.624C129.56 47.624 127.544 47.056 125.72 45.92C123.912 44.784 122.464 43.256 121.376 41.336C120.304 39.416 119.768 37.296 119.768 34.976C119.768 33.232 120.08 31.6 120.704 30.08C121.328 28.544 122.184 27.2 123.272 26.048C124.376 24.88 125.656 23.968 127.112 23.312C128.568 22.656 130.12 22.328 131.768 22.328C133.64 22.328 135.352 22.728 136.904 23.528C138.472 24.312 139.8 25.392 140.888 26.768C141.976 28.144 142.768 29.712 143.264 31.472C143.76 33.232 143.872 35.072 143.6 36.992H126.056C126.28 37.888 126.648 38.696 127.16 39.416C127.672 40.12 128.32 40.688 129.104 41.12C129.888 41.536 130.776 41.752 131.768 41.768C132.792 41.784 133.72 41.544 134.552 41.048C135.4 40.536 136.104 39.848 136.664 38.984L142.64 40.376C141.664 42.504 140.208 44.248 138.272 45.608C136.336 46.952 134.168 47.624 131.768 47.624ZM125.864 32.6H137.672C137.496 31.64 137.12 30.776 136.544 30.008C135.984 29.224 135.288 28.6 134.456 28.136C133.624 27.672 132.728 27.44 131.768 27.44C130.808 27.44 129.92 27.672 129.104 28.136C128.288 28.584 127.592 29.2 127.016 29.984C126.456 30.752 126.072 31.624 125.864 32.6ZM165.743 11H171.599V47H165.743V44C164.975 45.072 164.007 45.944 162.839 46.616C161.671 47.288 160.319 47.624 158.783 47.624C157.039 47.624 155.407 47.296 153.887 46.64C152.367 45.984 151.023 45.08 149.855 43.928C148.703 42.76 147.799 41.416 147.143 39.896C146.487 38.376 146.159 36.744 146.159 35C146.159 33.256 146.487 31.624 147.143 30.104C147.799 28.584 148.703 27.248 149.855 26.096C151.023 24.928 152.367 24.016 153.887 23.36C155.407 22.704 157.039 22.376 158.783 22.376C160.319 22.376 161.671 22.712 162.839 23.384C164.007 24.04 164.975 24.912 165.743 26V11ZM158.855 41.984C160.103 41.984 161.207 41.672 162.167 41.048C163.127 40.424 163.879 39.584 164.423 38.528C164.967 37.456 165.239 36.28 165.239 35C165.239 33.704 164.967 32.528 164.423 31.472C163.879 30.4 163.119 29.552 162.143 28.928C161.183 28.304 160.087 27.992 158.855 27.992C157.623 27.992 156.503 28.312 155.495 28.952C154.487 29.576 153.679 30.416 153.071 31.472C152.463 32.528 152.159 33.704 152.159 35C152.159 36.296 152.463 37.472 153.071 38.528C153.679 39.584 154.487 40.424 155.495 41.048C156.519 41.672 157.639 41.984 158.855 41.984ZM177.177 23H183.033V47H177.177V23ZM180.129 19.424C179.281 19.424 178.561 19.144 177.969 18.584C177.377 18.008 177.081 17.288 177.081 16.424C177.081 15.576 177.377 14.864 177.969 14.288C178.561 13.712 179.281 13.424 180.129 13.424C180.977 13.424 181.689 13.712 182.265 14.288C182.857 14.864 183.153 15.576 183.153 16.424C183.153 17.288 182.857 18.008 182.265 18.584C181.689 19.144 180.977 19.424 180.129 19.424ZM205.932 39.776L211.212 42.632C210.108 44.136 208.724 45.344 207.06 46.256C205.396 47.168 203.58 47.624 201.612 47.624C199.404 47.624 197.388 47.056 195.564 45.92C193.756 44.784 192.308 43.264 191.22 41.36C190.148 39.44 189.612 37.32 189.612 35C189.612 33.24 189.924 31.6 190.548 30.08C191.172 28.544 192.028 27.2 193.116 26.048C194.22 24.88 195.5 23.968 196.956 23.312C198.412 22.656 199.964 22.328 201.612 22.328C203.58 22.328 205.396 22.784 207.06 23.696C208.724 24.608 210.108 25.832 211.212 27.368L205.932 30.2C205.372 29.56 204.708 29.064 203.94 28.712C203.188 28.36 202.412 28.184 201.612 28.184C200.46 28.184 199.42 28.504 198.492 29.144C197.564 29.768 196.828 30.6 196.284 31.64C195.74 32.664 195.468 33.784 195.468 35C195.468 36.2 195.74 37.32 196.284 38.36C196.828 39.384 197.564 40.208 198.492 40.832C199.42 41.456 200.46 41.768 201.612 41.768C202.444 41.768 203.236 41.592 203.988 41.24C204.74 40.872 205.388 40.384 205.932 39.776ZM232.967 23H238.823V47H232.943L232.703 44.024C232.031 45.096 231.151 45.968 230.063 46.64C228.991 47.296 227.727 47.624 226.271 47.624C224.495 47.624 222.831 47.288 221.279 46.616C219.727 45.944 218.359 45.016 217.175 43.832C215.991 42.648 215.071 41.28 214.415 39.728C213.759 38.176 213.431 36.512 213.431 34.736C213.431 33.024 213.743 31.416 214.367 29.912C214.991 28.408 215.871 27.088 217.007 25.952C218.143 24.816 219.455 23.928 220.943 23.288C222.431 22.648 224.031 22.328 225.743 22.328C227.343 22.328 228.767 22.68 230.015 23.384C231.279 24.088 232.351 24.984 233.231 26.072L232.967 23ZM226.439 41.984C227.719 41.984 228.831 41.656 229.775 41C230.719 40.344 231.431 39.472 231.911 38.384C232.407 37.28 232.607 36.064 232.511 34.736C232.399 33.488 232.031 32.36 231.407 31.352C230.783 30.328 229.983 29.512 229.007 28.904C228.031 28.296 226.935 27.992 225.719 27.992C224.455 27.992 223.319 28.32 222.311 28.976C221.319 29.632 220.551 30.512 220.007 31.616C219.463 32.704 219.247 33.92 219.359 35.264C219.487 36.496 219.887 37.624 220.559 38.648C221.231 39.656 222.079 40.464 223.103 41.072C224.143 41.68 225.255 41.984 226.439 41.984Z" fill="#212121"/>
<defs>
<linearGradient id="paint0_linear_1228_19914" x1="60" y1="60" x2="-11.3946" y2="39.2998" gradientUnits="userSpaceOnUse">
<stop stop-color="#246BFD"/>
<stop offset="1" stop-color="#5089FF"/>
</linearGradient>
</defs>
</svg>
